<mxfile host="65bd71144e">
    <diagram id="dUujj-dlaUy0UsfuINg6" name="Page-1">
        <mxGraphModel dx="3779" dy="1832" grid="1" gridSize="10" guides="1" tooltips="1" connect="1" arrows="1" fold="1" page="1" pageScale="1" pageWidth="2339" pageHeight="3300" math="0" shadow="0">
            <root>
                <mxCell id="0"/>
                <mxCell id="1" parent="0"/>
                <mxCell id="74" value="" style="group" vertex="1" connectable="0" parent="1">
                    <mxGeometry x="-1180" y="40" width="1090" height="930" as="geometry"/>
                </mxCell>
                <mxCell id="58" value="Converting an IP address to bits/decimals" style="swimlane;startSize=30;horizontal=1;childLayout=treeLayout;horizontalTree=0;resizable=0;containerType=tree;fontSize=18;sketch=1;hachureGap=4;jiggle=2;curveFitting=1;fontFamily=Architects Daughter;fontSource=https%3A%2F%2Ffonts.googleapis.com%2Fcss%3Ffamily%3DArchitects%2BDaughter;opacity=50;" vertex="1" parent="74">
                    <mxGeometry x="100" y="10" width="860" height="300" as="geometry"/>
                </mxCell>
                <mxCell id="59" value="&lt;u&gt;Start with the following (2^0 --&amp;gt; 2^7):&lt;br&gt;&lt;/u&gt;&lt;br&gt;&lt;div style=&quot;text-align: left;&quot;&gt;&lt;span style=&quot;background-color: initial;&quot;&gt;128&lt;/span&gt;&lt;span style=&quot;background-color: initial; white-space: pre;&quot;&gt;&#9;&lt;/span&gt;&lt;span style=&quot;background-color: initial;&quot;&gt;64&lt;/span&gt;&lt;span style=&quot;background-color: initial; white-space: pre;&quot;&gt;&#9;&lt;/span&gt;&lt;span style=&quot;background-color: initial;&quot;&gt;32&lt;/span&gt;&lt;span style=&quot;background-color: initial; white-space: pre;&quot;&gt;&#9;&lt;/span&gt;&lt;span style=&quot;background-color: initial;&quot;&gt;16&lt;/span&gt;&lt;span style=&quot;background-color: initial; white-space: pre;&quot;&gt;&#9;&lt;/span&gt;&lt;span style=&quot;background-color: initial;&quot;&gt;8&lt;/span&gt;&lt;span style=&quot;background-color: initial; white-space: pre;&quot;&gt;&#9;&lt;/span&gt;&lt;span style=&quot;background-color: initial;&quot;&gt;4&lt;/span&gt;&lt;span style=&quot;background-color: initial; white-space: pre;&quot;&gt;&#9;&lt;/span&gt;&lt;span style=&quot;background-color: initial;&quot;&gt;2&lt;/span&gt;&lt;span style=&quot;background-color: initial; white-space: pre;&quot;&gt;&#9;&lt;/span&gt;&lt;span style=&quot;background-color: initial;&quot;&gt;1&lt;/span&gt;&lt;/div&gt;&lt;div style=&quot;text-align: left;&quot;&gt;&lt;span style=&quot;background-color: initial;&quot;&gt;2^7&lt;/span&gt;&lt;span style=&quot;background-color: initial; white-space: pre;&quot;&gt;&#9;&lt;/span&gt;&lt;span style=&quot;background-color: initial;&quot;&gt;2^6&lt;/span&gt;&lt;span style=&quot;background-color: initial; white-space: pre;&quot;&gt;&#9;&lt;/span&gt;&lt;span style=&quot;background-color: initial;&quot;&gt;2^5&lt;/span&gt;&lt;span style=&quot;background-color: initial; white-space: pre;&quot;&gt;&#9;&lt;/span&gt;&lt;span style=&quot;background-color: initial;&quot;&gt;2^4&lt;/span&gt;&lt;span style=&quot;background-color: initial; white-space: pre;&quot;&gt;&#9;&lt;/span&gt;&lt;span style=&quot;background-color: initial;&quot;&gt;2^3&lt;/span&gt;&lt;span style=&quot;background-color: initial; white-space: pre;&quot;&gt;&#9;&lt;/span&gt;&lt;span style=&quot;background-color: initial;&quot;&gt;2^2&lt;/span&gt;&lt;span style=&quot;background-color: initial; white-space: pre;&quot;&gt;&#9;&lt;/span&gt;&lt;span style=&quot;background-color: initial;&quot;&gt;2^1&lt;/span&gt;&lt;span style=&quot;background-color: initial; white-space: pre;&quot;&gt;&#9;&lt;/span&gt;&lt;span style=&quot;background-color: initial;&quot;&gt;2^0&lt;/span&gt;&lt;/div&gt;" style="whiteSpace=wrap;html=1;sketch=1;hachureGap=4;jiggle=2;curveFitting=1;fontFamily=Architects Daughter;fontSource=https%3A%2F%2Ffonts.googleapis.com%2Fcss%3Ffamily%3DArchitects%2BDaughter;fontSize=20;opacity=50;" vertex="1" parent="58">
                    <mxGeometry x="115.625" y="50" width="628.75" height="130" as="geometry"/>
                </mxCell>
                <mxCell id="60" value="Convert to bits (from decimal)" style="whiteSpace=wrap;html=1;sketch=1;hachureGap=4;jiggle=2;curveFitting=1;fontFamily=Architects Daughter;fontSource=https%3A%2F%2Ffonts.googleapis.com%2Fcss%3Ffamily%3DArchitects%2BDaughter;fontSize=20;opacity=50;" vertex="1" parent="58">
                    <mxGeometry x="20" y="230" width="360" height="50" as="geometry"/>
                </mxCell>
                <mxCell id="61" value="" style="edgeStyle=elbowEdgeStyle;elbow=vertical;html=1;rounded=1;curved=0;sourcePerimeterSpacing=0;targetPerimeterSpacing=0;startSize=6;endSize=6;sketch=1;hachureGap=4;jiggle=2;curveFitting=1;fontFamily=Architects Daughter;fontSource=https%3A%2F%2Ffonts.googleapis.com%2Fcss%3Ffamily%3DArchitects%2BDaughter;fontSize=16;" edge="1" parent="58" source="59" target="60">
                    <mxGeometry relative="1" as="geometry"/>
                </mxCell>
                <mxCell id="62" value="Convert to decimal (from bits)" style="whiteSpace=wrap;html=1;sketch=1;hachureGap=4;jiggle=2;curveFitting=1;fontFamily=Architects Daughter;fontSource=https%3A%2F%2Ffonts.googleapis.com%2Fcss%3Ffamily%3DArchitects%2BDaughter;fontSize=20;opacity=50;" vertex="1" parent="58">
                    <mxGeometry x="420" y="230" width="420" height="46" as="geometry"/>
                </mxCell>
                <mxCell id="63" value="" style="edgeStyle=elbowEdgeStyle;elbow=vertical;html=1;rounded=1;curved=0;sourcePerimeterSpacing=0;targetPerimeterSpacing=0;startSize=6;endSize=6;sketch=1;hachureGap=4;jiggle=2;curveFitting=1;fontFamily=Architects Daughter;fontSource=https%3A%2F%2Ffonts.googleapis.com%2Fcss%3Ffamily%3DArchitects%2BDaughter;fontSize=16;" edge="1" parent="58" source="59" target="62">
                    <mxGeometry relative="1" as="geometry"/>
                </mxCell>
                <mxCell id="68" style="edgeStyle=none;sketch=1;hachureGap=4;jiggle=2;curveFitting=1;html=1;fontFamily=Architects Daughter;fontSource=https%3A%2F%2Ffonts.googleapis.com%2Fcss%3Ffamily%3DArchitects%2BDaughter;fontSize=16;horizontal=1;" edge="1" parent="74" source="62">
                    <mxGeometry relative="1" as="geometry">
                        <mxPoint x="730" y="460" as="targetPoint"/>
                    </mxGeometry>
                </mxCell>
                <mxCell id="70" style="edgeStyle=none;sketch=1;hachureGap=4;jiggle=2;curveFitting=1;html=1;fontFamily=Architects Daughter;fontSource=https%3A%2F%2Ffonts.googleapis.com%2Fcss%3Ffamily%3DArchitects%2BDaughter;fontSize=14;" edge="1" parent="74" source="60">
                    <mxGeometry relative="1" as="geometry">
                        <mxPoint x="300" y="460" as="targetPoint"/>
                    </mxGeometry>
                </mxCell>
                <mxCell id="71" value="Place the 8 bits and place each digit above the 8 numbers and check:&lt;br&gt;&lt;br&gt;Where ever there is a 1 -&amp;gt; add all numbers.&lt;br&gt;&lt;br&gt;&lt;div style=&quot;text-align: left;&quot;&gt;&lt;span style=&quot;background-color: initial;&quot;&gt;&lt;b style=&quot;&quot;&gt;&lt;u&gt;Example:&lt;/u&gt;&lt;/b&gt;&lt;/span&gt;&lt;/div&gt;&lt;div style=&quot;text-align: left;&quot;&gt;&lt;span style=&quot;background-color: initial;&quot;&gt;IP Address (in bits): 11000000 . 10101000 . 00000001 . 00010101&lt;/span&gt;&lt;/div&gt;&lt;div style=&quot;text-align: left;&quot;&gt;&lt;br&gt;&lt;/div&gt;&lt;div style=&quot;text-align: left;&quot;&gt;Taking the first octet (11000000) and place it on our &quot;table&quot;:&lt;/div&gt;&lt;div style=&quot;text-align: left;&quot;&gt;1&lt;span style=&quot;white-space: pre;&quot;&gt;&#9;&lt;/span&gt;1&lt;span style=&quot;white-space: pre;&quot;&gt;&#9;&lt;/span&gt;0&lt;span style=&quot;white-space: pre;&quot;&gt;&#9;&lt;/span&gt;0&lt;span style=&quot;white-space: pre;&quot;&gt;&#9;&lt;/span&gt;0&lt;span style=&quot;white-space: pre;&quot;&gt;&#9;&lt;/span&gt;0&lt;span style=&quot;white-space: pre;&quot;&gt;&#9;&lt;/span&gt;0&lt;span style=&quot;white-space: pre;&quot;&gt;&#9;&lt;/span&gt;0&lt;/div&gt;&lt;div style=&quot;text-align: left;&quot;&gt;128&lt;span style=&quot;white-space: pre;&quot;&gt;&#9;&lt;/span&gt;64&lt;span style=&quot;white-space: pre;&quot;&gt;&#9;&lt;/span&gt;32&lt;span style=&quot;white-space: pre;&quot;&gt;&#9;&lt;/span&gt;16&lt;span style=&quot;white-space: pre;&quot;&gt;&#9;&lt;/span&gt;8&lt;span style=&quot;white-space: pre;&quot;&gt;&#9;&lt;/span&gt;4&lt;span style=&quot;white-space: pre;&quot;&gt;&#9;&lt;/span&gt;2&lt;span style=&quot;white-space: pre;&quot;&gt;&#9;&lt;/span&gt;1&lt;/div&gt;&lt;div style=&quot;text-align: left;&quot;&gt;-------------------------------------------------------------------------------&lt;/div&gt;&lt;div style=&quot;text-align: left;&quot;&gt;128&lt;span style=&quot;white-space: pre;&quot;&gt;&#9;&lt;/span&gt;64&lt;span style=&quot;white-space: pre;&quot;&gt;&#9;&lt;/span&gt;0&lt;span style=&quot;white-space: pre;&quot;&gt;&#9;&lt;/span&gt;0&lt;span style=&quot;white-space: pre;&quot;&gt;&#9;&lt;/span&gt;0&lt;span style=&quot;white-space: pre;&quot;&gt;&#9;&lt;/span&gt;0&lt;span style=&quot;white-space: pre;&quot;&gt;&#9;&lt;/span&gt;0&lt;span style=&quot;white-space: pre;&quot;&gt;&#9;&lt;/span&gt;0&lt;/div&gt;&lt;div style=&quot;text-align: left;&quot;&gt;&lt;br&gt;&lt;/div&gt;&lt;div style=&quot;text-align: left;&quot;&gt;128 + 64 = 192&lt;/div&gt;&lt;div style=&quot;text-align: left;&quot;&gt;&lt;br&gt;&lt;/div&gt;&lt;div style=&quot;text-align: left;&quot;&gt;&lt;font style=&quot;font-size: 12px;&quot;&gt;Now when you do this for the rest of the octets you get the following:&lt;/font&gt;&lt;/div&gt;&lt;div style=&quot;text-align: left;&quot;&gt;&lt;font style=&quot;font-size: 12px;&quot;&gt;192.168.1.21&lt;/font&gt;&lt;/div&gt;&lt;div style=&quot;text-align: left;&quot;&gt;&lt;br&gt;&lt;/div&gt;" style="rounded=1;whiteSpace=wrap;html=1;sketch=1;hachureGap=4;jiggle=2;curveFitting=1;fontFamily=Architects Daughter;fontSource=https%3A%2F%2Ffonts.googleapis.com%2Fcss%3Ffamily%3DArchitects%2BDaughter;fontSize=14;opacity=50;perimeterSpacing=4;spacingLeft=0;spacing=9;" vertex="1" parent="74">
                    <mxGeometry y="460" width="500" height="400" as="geometry"/>
                </mxCell>
                <mxCell id="72" value="Take the indivudal octets and ask: Can we subtract the current octet from the table? &lt;br&gt;&lt;div style=&quot;text-align: left;&quot;&gt;&lt;span style=&quot;background-color: initial;&quot;&gt;&lt;b&gt;&lt;u&gt;If yes:&lt;/u&gt;&lt;/b&gt; Place a 1 under the current octet and use the result from the subtraction and move on to the next one.&amp;nbsp;&lt;/span&gt;&lt;/div&gt;&lt;div style=&quot;text-align: left;&quot;&gt;&lt;span style=&quot;background-color: initial;&quot;&gt;&lt;b&gt;&lt;u&gt;If not:&lt;/u&gt;&lt;/b&gt; Place a 0 and move on.&lt;/span&gt;&lt;/div&gt;&lt;br&gt;&lt;div style=&quot;text-align: left;&quot;&gt;&lt;span style=&quot;background-color: initial;&quot;&gt;&lt;b style=&quot;&quot;&gt;&lt;u&gt;Example:&lt;/u&gt;&lt;/b&gt;&lt;/span&gt;&lt;/div&gt;&lt;div style=&quot;text-align: left;&quot;&gt;&lt;span style=&quot;background-color: initial;&quot;&gt;IP Address (in decimal): 172.16.34.3&lt;/span&gt;&lt;/div&gt;&lt;div style=&quot;text-align: left;&quot;&gt;&lt;br&gt;&lt;/div&gt;&lt;div style=&quot;text-align: left;&quot;&gt;Taking the first octet (172) and place it on our &quot;table&quot;:&lt;/div&gt;&lt;div style=&quot;text-align: left;&quot;&gt;172&lt;span style=&quot;white-space: pre;&quot;&gt;&#9;&lt;/span&gt;44&lt;span style=&quot;white-space: pre;&quot;&gt;&#9;&lt;/span&gt;44&lt;span style=&quot;white-space: pre;&quot;&gt;&#9;&lt;/span&gt;12&lt;span style=&quot;white-space: pre;&quot;&gt;&#9;&lt;/span&gt;12&lt;span style=&quot;white-space: pre;&quot;&gt;&#9;&lt;/span&gt;4&lt;span style=&quot;white-space: pre;&quot;&gt;&#9;&lt;/span&gt;0&lt;span style=&quot;white-space: pre;&quot;&gt;&#9;&lt;/span&gt;0&lt;/div&gt;&lt;div style=&quot;text-align: left;&quot;&gt;&lt;br&gt;&lt;/div&gt;&lt;div style=&quot;text-align: left;&quot;&gt;128&lt;span style=&quot;white-space: pre;&quot;&gt;&#9;&lt;/span&gt;64&lt;span style=&quot;white-space: pre;&quot;&gt;&#9;&lt;/span&gt;32&lt;span style=&quot;white-space: pre;&quot;&gt;&#9;&lt;/span&gt;16&lt;span style=&quot;white-space: pre;&quot;&gt;&#9;&lt;/span&gt;8&lt;span style=&quot;white-space: pre;&quot;&gt;&#9;&lt;/span&gt;4&lt;span style=&quot;white-space: pre;&quot;&gt;&#9;&lt;/span&gt;2&lt;span style=&quot;white-space: pre;&quot;&gt;&#9;&lt;/span&gt;1&lt;/div&gt;&lt;div style=&quot;text-align: left;&quot;&gt;----------------------------------------------------------------------------&lt;/div&gt;&lt;div style=&quot;text-align: left;&quot;&gt;1&lt;span style=&quot;white-space: pre;&quot;&gt;&#9;&lt;/span&gt;0&lt;span style=&quot;white-space: pre;&quot;&gt;&#9;&lt;/span&gt;1&lt;span style=&quot;white-space: pre;&quot;&gt;&#9;&lt;/span&gt;0&lt;span style=&quot;white-space: pre;&quot;&gt;&#9;&lt;/span&gt;1&lt;span style=&quot;white-space: pre;&quot;&gt;&#9;&lt;/span&gt;1&lt;span style=&quot;white-space: pre;&quot;&gt;&#9;&lt;/span&gt;0&lt;span style=&quot;white-space: pre;&quot;&gt;&#9;&lt;/span&gt;0&lt;/div&gt;&lt;div style=&quot;text-align: left;&quot;&gt;&lt;br&gt;&lt;/div&gt;&lt;div style=&quot;text-align: left;&quot;&gt;&lt;span style=&quot;font-size: 12px;&quot;&gt;From the above we get our first octet: 10101100.&lt;/span&gt;&lt;/div&gt;&lt;div style=&quot;text-align: left;&quot;&gt;&lt;span style=&quot;font-size: 12px;&quot;&gt;&lt;br&gt;&lt;/span&gt;&lt;/div&gt;&lt;div style=&quot;text-align: left;&quot;&gt;&lt;span style=&quot;font-size: 12px;&quot;&gt;Again, we first check, can we subtract 128 from 172 (basically is 172 &amp;gt; 128)? Yes, 172-128=44, so then we place a 1 and move onto the next one, but now with 44 instead of 172 etc...&lt;/span&gt;&lt;/div&gt;&lt;div style=&quot;text-align: left;&quot;&gt;&lt;font style=&quot;font-size: 12px;&quot;&gt;&lt;br&gt;&lt;/font&gt;&lt;/div&gt;&lt;div style=&quot;text-align: left;&quot;&gt;&lt;font style=&quot;font-size: 12px;&quot;&gt;Now when you do this for the rest of the octets you get the following:&lt;/font&gt;&lt;/div&gt;&lt;div style=&quot;text-align: left;&quot;&gt;&lt;font style=&quot;font-size: 12px;&quot;&gt;10101100 . 00010000 . 00100010 . 00000011&lt;/font&gt;&lt;/div&gt;&lt;div style=&quot;text-align: left;&quot;&gt;&lt;br&gt;&lt;/div&gt;" style="rounded=1;whiteSpace=wrap;html=1;sketch=1;hachureGap=4;jiggle=2;curveFitting=1;fontFamily=Architects Daughter;fontSource=https%3A%2F%2Ffonts.googleapis.com%2Fcss%3Ffamily%3DArchitects%2BDaughter;fontSize=14;opacity=50;perimeterSpacing=4;spacingLeft=0;spacing=9;" vertex="1" parent="74">
                    <mxGeometry x="560" y="460" width="500" height="470" as="geometry"/>
                </mxCell>
                <mxCell id="83" style="edgeStyle=none;sketch=1;hachureGap=4;jiggle=2;curveFitting=1;html=1;fontFamily=Architects Daughter;fontSource=https%3A%2F%2Ffonts.googleapis.com%2Fcss%3Ffamily%3DArchitects%2BDaughter;fontSize=25;fontColor=#FFFFFF;" edge="1" parent="1" source="75" target="79">
                    <mxGeometry relative="1" as="geometry"/>
                </mxCell>
                <mxCell id="75" value="When converted into binary we can deduct the following:&lt;br&gt;&lt;br&gt;&lt;b&gt;&lt;u&gt;Decimal:&lt;/u&gt;&lt;/b&gt;&lt;br&gt;IP: 192 . 168 . 32 . 5&lt;br&gt;Subnet Mask: 255 . 255 . 255 . 0&lt;br&gt;&lt;br&gt;&lt;b&gt;&lt;u&gt;Binary&lt;/u&gt;&lt;/b&gt;&lt;br&gt;IP: 11000000 . 10101000 . 00100000 . 00000101&lt;br&gt;Subnet Mask: &lt;font face=&quot;Times New Roman&quot;&gt;11111111.11111111.11111111.00000000&lt;/font&gt;&lt;br&gt;&lt;br&gt;1 = Network bits&lt;br&gt;0 = Host bits" style="rounded=1;whiteSpace=wrap;html=1;sketch=1;hachureGap=4;jiggle=2;curveFitting=1;fontFamily=Architects Daughter;fontSource=https%3A%2F%2Ffonts.googleapis.com%2Fcss%3Ffamily%3DArchitects%2BDaughter;fontSize=18;opacity=50;align=left;spacing=13;" vertex="1" parent="1">
                    <mxGeometry x="-470" y="1250" width="650" height="320" as="geometry"/>
                </mxCell>
                <mxCell id="79" value="&lt;font face=&quot;Architects Daughter&quot;&gt;Number of 0's (when converted to binary) in subnet mask = number of possible hosts:&lt;br&gt;&lt;div style=&quot;text-align: center;&quot;&gt;&lt;span style=&quot;background-color: initial;&quot;&gt;&lt;font style=&quot;font-size: 25px;&quot;&gt;&lt;b&gt;&lt;u&gt;2^(# of 0's) - 2.&lt;/u&gt;&lt;/b&gt;&lt;/font&gt;&lt;/span&gt;&lt;/div&gt;&lt;div style=&quot;text-align: center;&quot;&gt;&lt;span style=&quot;background-color: initial;&quot;&gt;&lt;br&gt;&lt;/span&gt;&lt;/div&gt;In the above example:&lt;br&gt;2^8 = 256.&lt;br&gt;This means we can have a total of 256 different IP addresses in this network.&lt;br&gt;&lt;br&gt;&lt;font style=&quot;font-weight: bold;&quot; color=&quot;#990000&quot;&gt;HOWEVER: &lt;/font&gt;&lt;font color=&quot;#ffffff&quot; style=&quot;&quot;&gt;Since we cannot use all of them (2 are reserved, subnet address + broadcast address. The first and last IP addresses in the network).&lt;br&gt;&lt;/font&gt;&lt;br&gt;NEW TOTAL: 256 - 2 = 254 avaliable addresses.&lt;br&gt;&lt;/font&gt;" style="rounded=1;whiteSpace=wrap;html=1;sketch=1;hachureGap=4;jiggle=2;curveFitting=1;fontFamily=Times New Roman;fontSize=18;opacity=50;align=left;spacing=13;" vertex="1" parent="1">
                    <mxGeometry x="-410" y="1810" width="570" height="330" as="geometry"/>
                </mxCell>
                <mxCell id="81" value="What can we deduct from the binary?" style="text;html=1;strokeColor=#001DBC;fillColor=#0050ef;align=center;verticalAlign=middle;whiteSpace=wrap;rounded=0;sketch=1;hachureGap=4;jiggle=2;curveFitting=1;fontFamily=Architects Daughter;fontSource=https%3A%2F%2Ffonts.googleapis.com%2Fcss%3Ffamily%3DArchitects%2BDaughter;fontSize=25;fontColor=#ffffff;opacity=50;" vertex="1" parent="1">
                    <mxGeometry x="-330" y="1020" width="560" height="110" as="geometry"/>
                </mxCell>
                <mxCell id="82" style="edgeStyle=none;sketch=1;hachureGap=4;jiggle=2;curveFitting=1;html=1;fontFamily=Architects Daughter;fontSource=https%3A%2F%2Ffonts.googleapis.com%2Fcss%3Ffamily%3DArchitects%2BDaughter;fontSize=25;fontColor=#FFFFFF;" edge="1" parent="1" source="72" target="75">
                    <mxGeometry relative="1" as="geometry"/>
                </mxCell>
                <mxCell id="84" value="What can we use the number of host bits for?" style="text;html=1;strokeColor=#001DBC;fillColor=#0050ef;align=center;verticalAlign=middle;whiteSpace=wrap;rounded=0;sketch=1;hachureGap=4;jiggle=2;curveFitting=1;fontFamily=Architects Daughter;fontSource=https%3A%2F%2Ffonts.googleapis.com%2Fcss%3Ffamily%3DArchitects%2BDaughter;fontSize=25;fontColor=#ffffff;opacity=50;" vertex="1" parent="1">
                    <mxGeometry x="-220" y="1610" width="700" height="130" as="geometry"/>
                </mxCell>
            </root>
        </mxGraphModel>
    </diagram>
</mxfile>